PathFileType	4	(X/Y/Z)	1_1_26_p0_0-294_filt_butterworth.trc
DataRate	CameraRate	NumFrames	NumMarkers	Units	OrigDataRate	OrigDataStartFrame	OrigNumFrames
60.0	60.0	7	27	m	60.0	220	294
Frame#	Time	RHip			RKnee			RAnkle			RBigToe			RSmallToe			RHeel			LHip			LKnee			LAnkle			LBigToe			LSmallToe			LHeel			Neck			Head			Nose			RShoulder			RElbow			RWrist			RThumb			RIndex			RPinky			LShoulder			LElbow			LWrist			LThumb			LIndex			LPinky			
		X1	Y1	Z1	X2	Y2	Z2	X3	Y3	Z3	X4	Y4	Z4	X5	Y5	Z5	X6	Y6	Z6	X7	Y7	Z7	X8	Y8	Z8	X9	Y9	Z9	X10	Y10	Z10	X11	Y11	Z11	X12	Y12	Z12	X13	Y13	Z13	X14	Y14	Z14	X15	Y15	Z15	X16	Y16	Z16	X17	Y17	Z17	X18	Y18	Z18	X19	Y19	Z19	X20	Y20	Z20	X21	Y21	Z21	X22	Y22	Z22	X23	Y23	Z23	X24	Y24	Z24	X25	Y25	Z25	X26	Y26	Z26	X27	Y27	Z27	
220	3.6666666666666665	0.3658202838329618	0.1344830768847612	1.0711781518779993	0.37433088321298563	0.2454416513612702	1.5502750929819293	0.37147570804509294	0.35494906651904107	1.9782115270742067	0.3618539760496634	0.1949325526513282	2.0263311854281616	0.4359621888253587	0.23026902058906695	2.0193126873423837	0.34198107184398985	0.44592441102560576	2.0593385945948572	0.1372549122995011	0.0973803379314074	1.0684151488257678	0.15057250267646866	0.22620396590154881	1.537425942999015	0.15853927715222113	0.3428324199493944	1.9660164093694688	0.16497755131085776	0.12372621459819017	1.9921616304794347	0.09999268506147925	0.17492098349320467	1.991141434813133	0.1850777725688108	0.39978687589932416	2.040232374160573	0.2253841046386483	0.10418016095381868	0.4237431776051665	0.19910675695248045	-0.003774475662887624	0.18010792197411052	0.25888553768245903	-0.03942031230402001	0.3116896862258742	0.4197099094100832	0.1092157014365268	0.5240975898080528	0.5082565760550973	0.14401756407861763	0.7897910306070498	0.5069332892916708	0.1442693153314054	1.081152941553393	0.44844933936897563	0.08644820214626737	1.18633803704689	0.4663215222658602	0.09429725296571576	1.2082689250619505	0.4950967107420113	0.16257046314013873	1.2126928129684351	0.056735170979558935	0.12295883214960748	0.5083549769246705	-0.06514648894434016	-0.09885897203907366	0.6549283173707139	0.03431068786561357	-0.05930596388630087	0.4425658887281563	0.09750419788700038	-0.028326557515437372	0.383085980644866	0.08994107225772496	-0.02110348116941744	0.3545447239237187	0.0682111627886467	-0.07163728042828058	0.37623909864911864
221	3.683333333333333	0.3658158866545897	0.134464079812563	1.0701477412625362	0.37426097791326923	0.24528907244175846	1.5494859735537245	0.3713985518571133	0.3551174374009645	1.9787872684481969	0.36283895063340077	0.19136520825345177	2.0242464608593447	0.4357784072973953	0.22707580353783755	2.018146237208182	0.34232827383272113	0.44584592534320877	2.0602676396627717	0.1372339819689908	0.09721265579855093	1.0683237324754842	0.15074698678882167	0.2264005601440111	1.537562955914006	0.15751651948377343	0.342280659973057	1.9657499253261246	0.16579646232975864	0.1209345455342783	1.9914785593622328	0.10000073826944732	0.17451907744578682	1.9902646355191556	0.18511273776687606	0.3995634754154832	2.0400842731373627	0.22633340350271627	0.10422563018891301	0.42322953025647736	0.19943622694690433	-0.0028426206717391237	0.18002826019858803	0.2605436947310221	-0.039432879304513654	0.31128197175108313	0.41974807875142667	0.10925347496307275	0.524110251822937	0.508237301622016	0.14377141158796988	0.7901431549831803	0.5073514182188364	0.137275435996325	1.0817850439157821	0.4467918789042409	0.08270901678843895	1.1855571235684748	0.4647560229696335	0.0925308167538939	1.2081497426087768	0.4929894863543166	0.15857693016533247	1.2127587088320932	0.05700472901839903	0.12334273168761774	0.5079690478345161	-0.06514789387237462	-0.09809235876022739	0.6561068752451337	0.03527937604286518	-0.057022790067016625	0.4424086452807861	0.0987302167632036	-0.024119307825796462	0.38254974079822085	0.09114197035389209	-0.0181597230206876	0.3529825991096221	0.06827031657385657	-0.07166105246564008	0.37584832715266286
222	3.7	0.3657539171188701	0.13419601949885068	1.069238602625504	0.37417254601504296	0.2450534389325686	1.5489648087871086	0.3713433317776401	0.3549893711775032	1.9790188440681356	0.36414695584044965	0.1866456525594359	2.021524098447404	0.4364121137132765	0.2225197893079584	2.0165223740295937	0.3419842922138173	0.4439485188855127	2.059964533190242	0.13726305816594514	0.09695085911763257	1.068196413352746	0.15083504493134045	0.22657381184820893	1.5376983976525325	0.1561918645279103	0.3417030394572389	1.965815772210877	0.1676678588578666	0.11532014464698591	1.9888581061665098	0.10005621791933313	0.1742938507402311	1.9897514350815382	0.1849803330080815	0.3998125004235587	2.0402417791123004	0.22718771269142932	0.10426737402966359	0.4221862191255066	0.2000946957618134	-0.00022405751634097936	0.1795018440648758	0.26166938841743226	-0.039187566347578695	0.31050521648594454	0.4201674404128357	0.1103190766875162	0.5241368865230203	0.5083479572459831	0.14329232016620252	0.7910291378671438	0.5082268939866216	0.13079027971469387	1.081998530548141	0.44567628572381834	0.07981274002149008	1.1849903776867425	0.4641963924955521	0.09133729320381734	1.2081280540932162	0.4922214280361753	0.15668722208328467	1.2127826718171235	0.05785265154788258	0.12378939328072826	0.5077876235973153	-0.0658533516779984	-0.09552163261554644	0.6565687691097291	0.03705655332526317	-0.0534138811059319	0.44167639585715907	0.10064609661045758	-0.01913016844181417	0.38235655370852145	0.09342621044902397	-0.014599462542057316	0.35191774645851726	0.06791836999593347	-0.07086328831855421	0.37490615973823394
223	3.716666666666667	0.3655862848315591	0.13367878869153013	1.0684719343856883	0.3740428696756899	0.2447814567183404	1.548580526375064	0.3713820451705884	0.3547776686071736	1.9791250780647043	0.3651327058639214	0.18301989366271834	2.019424908512317	0.4371481696951767	0.2188816042571007	2.0149856738363243	0.34117744781633536	0.440804937100001	2.059311236830792	0.1373468464436512	0.09664270130017588	1.068073589281111	0.15083805883837265	0.22665310701057095	1.5378214466141678	0.15517553195190165	0.3410204594260637	1.9664508527596294	0.16974675443106813	0.10938369908712667	1.9855309948184197	0.10011780412024093	0.1741900885436452	1.9898760577583707	0.18446455007267262	0.4012270988670767	2.0410224380873423	0.22780335320806697	0.10412855953212602	0.420912244574359	0.20078357120853685	0.0035701686738524594	0.17833598181223723	0.262591694380034	-0.03858233985230405	0.3082733329935902	0.4211779308463877	0.1129743533040887	0.5241853124897793	0.5084604928286413	0.14278526349228787	0.7921928762359247	0.5091368443785234	0.1274055363220405	1.0819055136183464	0.444948319096897	0.0784169636320886	1.1847498680019692	0.46427399607024	0.0902282209607567	1.2079588998724815	0.492281707099511	0.15645591217221372	1.2127628708673786	0.05907738298624615	0.12438655465104698	0.5081136068397234	-0.0671472155613968	-0.09191292244165655	0.6559918797174881	0.039023372464798256	-0.05009783647266984	0.44106011609021395	0.10288567590145031	-0.01517095125047661	0.38215169808497523	0.09556079702317778	-0.011458618550900019	0.35064100167351037	0.06681234830493672	-0.06843958438991049	0.37356273391277306
224	3.733333333333333	0.3652850385525281	0.13303960222877936	1.067455998209844	0.3740110801629875	0.24498120011091734	1.5482706251482128	0.3714376034311841	0.3545535705664909	1.979140704893282	0.36549527252122854	0.1815602477094002	2.018512202645642	0.43751382767816194	0.2173120257017424	2.014147049935893	0.34037700989428576	0.43823298167281394	2.0588721579700024	0.13734485610640507	0.09662715668875166	1.0681599651804798	0.15079966750333615	0.22666752798912437	1.5379320786062485	0.15476396979413995	0.3400500980813702	1.967415856082095	0.17081435687900778	0.10641895586791222	1.9837010361294183	0.10012456893216504	0.17408076895995506	1.9904365425381159	0.18365448697761122	0.40358564449409084	2.0422418836757767	0.2282381178191182	0.10368932001355434	0.4198628630520276	0.20109652964962021	0.006907426489411623	0.17669392211139023	0.2630112841181223	-0.037607437038024986	0.30458569691685833	0.4224905576008383	0.11645884413341814	0.5242374473447706	0.5085244329666717	0.1424555930847288	0.793073334464439	0.509483137250634	0.1272135951379147	1.0817023822179812	0.44408522089454117	0.07792635803555148	1.1845710452156115	0.46443818335675474	0.08938492385158746	1.2076694461403328	0.4925509191981629	0.1569303681479977	1.2127153693110189	0.06006490191263427	0.12483467561966378	0.508601108140375	-0.06834207057641448	-0.08885287598931851	0.6543942478743127	0.040353939899549544	-0.048372269430098896	0.44078620247755973	0.10450291808891184	-0.01242293342032584	0.3814610153759912	0.09561606501092934	-0.008202057750773229	0.34820114160695254	0.06523678264295901	-0.06478429325025739	0.37221825537595254
225	3.75	0.3650277924451869	0.13276107600885836	1.066383774003623	0.37443674882067335	0.24661656320871655	1.548606964352047	0.37144255338608345	0.3543255181918865	1.9790352697707527	0.3654568342830263	0.18154918533072997	2.0183746907101323	0.43752865469469937	0.21712617422089864	2.0139299936051436	0.3400286935230888	0.4383607056114783	2.0587745709027363	0.13692443697412612	0.09771983900428988	1.0688457531655091	0.15075415472911968	0.2266597532988053	1.537983051282269	0.15487835978230213	0.3390331487509361	1.9681848998116949	0.17058510596781157	0.10709550508127064	1.984029729835073	0.10005889207682242	0.17403577873431175	1.9908285136103845	0.18314472867021508	0.40516693110138746	2.042909212303261	0.22847549936417103	0.10296681421725175	0.41893011867063135	0.20101454985729625	0.008727206673815685	0.1749641205569528	0.26290129692988545	-0.036572659734874856	0.3008755710955778	0.423482559490462	0.1191204656184591	0.5242667078458816	0.5085349356872529	0.14234234794571438	0.7934283160536614	0.509210804691293	0.12806213104326547	1.0816470649382757	0.44300877351160994	0.07774859141216839	1.1841371983718068	0.4642648344472314	0.08889886797697613	1.207392521923679	0.492796509002312	0.15756492621791657	1.2126132950792121	0.060471034094649004	0.12485539760241747	0.5087346799979934	-0.06856032360480765	-0.087104692581529	0.6519476130043883	0.040809827106648086	-0.048325616872123646	0.44031055761264726	0.10478724436495254	-0.010138042640258306	0.37988557573456	0.09276700066519433	-0.00418868371557354	0.3444210884363461	0.0639192419855251	-0.061603331943384174	0.371039904813537
226	3.7666666666666666	0.365249260793904	0.1337491361081637	1.0664110751189353	0.37563478897484426	0.25020451376447633	1.5504765101831772	0.37150602111380887	0.35443052453139934	1.9790215776648765	0.365349931887782	0.1819256600169986	2.0184723233506774	0.43744370012046413	0.21734514849025227	2.014035373339881	0.34014393001430837	0.4409465079257494	2.059124070822249	0.13583302428397792	0.10058725733142307	1.070254560645631	0.15071746584055912	0.22664854409508742	1.5379315308777812	0.15549459056470458	0.33858987419381575	1.9685723739583316	0.1691689049978199	0.11102551088328226	1.9863662626695244	0.09994975044166471	0.17431018441410684	1.9906197948468245	0.1832031934149077	0.40529581195845216	2.0425113719007633	0.22849358269102873	0.10225658445808143	0.4174589675065164	0.20090721796709932	0.009303386489254505	0.17353479993992071	0.2626675877981727	-0.03597624396659547	0.2986030163200309	0.42387816894954256	0.12020059385394606	0.5242699496757013	0.508521544678202	0.14234629039000862	0.7934652517340123	0.508594815179106	0.12853502504015366	1.0819242146939558	0.4421184913743539	0.0777984037679009	1.1833517422100153	0.4635052990185246	0.08842796973899522	1.2072172284931688	0.49296807524706976	0.1580737476805585	1.2124251071668894	0.06048098341100708	0.12468946500675984	0.5083189207105944	-0.06782331989907095	-0.0863176989266224	0.6490440025342682	0.040767549174487674	-0.04988120546796088	0.438863539524324	0.10392321979505396	-0.009210487900243671	0.3775564216642815	0.08841929905939441	-0.00165380479465118	0.33985824117029223	0.06325884435574287	-0.060716877891032014	0.36930392019044805
